<svg xmlns="http://www.w3.org/2000/svg" viewBox="0 0 256 256" fill="none" stroke="none" stroke-width="2" stroke-linecap="round" stroke-linejoin="round">
  <path d="M53 67c34 -34 86 -23 123 14c22 22 31 49 22 73c-9 25 -35 46 -70 53c-36 7 -72 -3 -94 -25c-26 -26 -20 -84 19 -115z" fill="#FF5263" stroke="#111118" stroke-width="10" stroke-linejoin="round" />
  <path d="M172 84c27 8 47 27 56 54c-7 28 -27 49 -56 61l-36 -43l35 -35z" fill="#FF5263" stroke="#111118" stroke-width="10" stroke-linejoin="round" />
  <path d="M191 109c16 10 26 24 31 40c-6 17 -16 29 -30 38" stroke="#D12A78" stroke-width="12" stroke-linecap="round" />
  <circle cx="144" cy="153" r="19" fill="#ffffff" stroke="#111118" stroke-width="9" />
  <path d="M58 74c27 -24 67 -20 102 8" stroke="#FFD8DF" stroke-width="13" stroke-linecap="round" />
</svg>
